<svg width="13" height="14" viewBox="0 0 13 14" fill="none" xmlns="http://www.w3.org/2000/svg">
<path d="M3.87154 8.6637C2.16132 6.50734 2.60746 3.68176 4.46639 2.12026C6.39969 0.484395 9.07655 0.63311 10.8611 2.34333C12.5713 4.05355 12.7201 6.80477 11.2329 8.6637C9.67141 10.5226 6.84583 11.0431 4.61511 9.33292C4.02025 9.92778 3.35104 10.597 2.75618 11.1919C2.16132 11.7867 1.4921 12.4559 0.897243 13.0508C0.674171 12.8277 0.451099 12.6046 0.228027 12.3816C1.34339 11.1175 2.60746 9.92778 3.87154 8.6637ZM7.51505 1.89718C5.43304 1.89718 3.72282 3.6074 3.72282 5.61505C3.72282 7.77141 5.43304 9.48163 7.51505 9.40728C9.59705 9.40728 11.3073 7.69706 11.3073 5.61505C11.3073 3.53305 9.59705 1.89718 7.51505 1.89718Z" fill="#586A8B"/>
</svg>
